<?xml version="1.0" encoding="UTF-8" standalone="no"?>
<!-- Created with Inkscape (http://www.inkscape.org/) -->

<svg
   xmlns:dc="http://purl.org/dc/elements/1.1/"
   xmlns:cc="http://creativecommons.org/ns#"
   xmlns:rdf="http://www.w3.org/1999/02/22-rdf-syntax-ns#"
   xmlns:svg="http://www.w3.org/2000/svg"
   xmlns="http://www.w3.org/2000/svg"
   xmlns:xlink="http://www.w3.org/1999/xlink"
   xmlns:sodipodi="http://sodipodi.sourceforge.net/DTD/sodipodi-0.dtd"
   xmlns:inkscape="http://www.inkscape.org/namespaces/inkscape"
   width="48"
   height="48"
   id="svg2"
   version="1.1"
   inkscape:version="0.48.4 r9939"
   sodipodi:docname="icon.svg">
  <defs
     id="defs4">
    <linearGradient
       id="linearGradient7567">
      <stop
         id="stop7569"
         offset="0"
         style="stop-color:#9bdfee;stop-opacity:1;" />
      <stop
         id="stop7571"
         offset="1"
         style="stop-color:#66b7c9;stop-opacity:1;" />
    </linearGradient>
    <linearGradient
       gradientTransform="matrix(0.06637582,0,0,0.06618559,-0.48474807,86.862184)"
       gradientUnits="userSpaceOnUse"
       y2="62.151302"
       x2="2.41994"
       y1="3"
       x1="61.9585"
       id="linearGradient3779"
       xlink:href="#linearGradient7567"
       inkscape:collect="always" />
  </defs>
  <sodipodi:namedview
     id="base"
     pagecolor="#ffffff"
     bordercolor="#666666"
     borderopacity="1.0"
     inkscape:pageopacity="0.0"
     inkscape:pageshadow="2"
     inkscape:zoom="11.593556"
     inkscape:cx="22.417664"
     inkscape:cy="23.653283"
     inkscape:document-units="px"
     inkscape:current-layer="layer1"
     showgrid="false"
     inkscape:window-width="1920"
     inkscape:window-height="1056"
     inkscape:window-x="0"
     inkscape:window-y="24"
     inkscape:window-maximized="1"
     showguides="true"
     inkscape:guide-bbox="true" />
  <metadata
     id="metadata7">
    <rdf:RDF>
      <cc:Work
         rdf:about="">
        <dc:format>image/svg+xml</dc:format>
        <dc:type
           rdf:resource="http://purl.org/dc/dcmitype/StillImage" />
        <dc:title />
      </cc:Work>
    </rdf:RDF>
  </metadata>
  <g
     inkscape:label="Layer 1"
     inkscape:groupmode="layer"
     id="layer1"
     transform="translate(0,-1004.3622)">
    <g
       transform="matrix(11.52364,0,0,11.52364,-3947.5338,-5762.4485)"
       id="layer1-8"
       inkscape:label="Layer 1">
      <g
         id="g5228"
         style="display:inline"
         transform="translate(343,500.31673)">
        <rect
           style="fill:url(#linearGradient3779);fill-opacity:1;stroke:none"
           id="rect2993"
           width="4.1653504"
           height="4.1594281"
           x="-0.44037473"
           y="86.900414"
           ry="0.1949732" />
      </g>
    </g>
    <path
       sodipodi:type="arc"
       style="fill:#ffffff;fill-opacity:1;stroke:none"
       id="path2999"
       sodipodi:cx="25.358915"
       sodipodi:cy="26.005022"
       sodipodi:rx="13.024477"
       sodipodi:ry="12.420693"
       d="m 38.383392,26.005022 a 13.024477,12.420693 0 1 1 -26.048954,0 13.024477,12.420693 0 1 1 26.048954,0 z"
       transform="matrix(1.1516777,0,0,1.207662,-5.2052976,996.95692)" />
    <path
       style="fill:#000000"
       d="m 23.437082,1044.357 c -4.077401,-0.1496 -7.872744,-1.8015 -10.754583,-4.6808 -2.53455,-2.5325 -4.136625,-5.8152 -4.570607,-9.3656 C 8.029762,1029.6387 8,1029.1199 8,1028.3599 c 0,-0.6349 0.0083,-0.8445 0.05545,-1.4004 0.128263,-1.512 0.483386,-3.0274 1.043276,-4.4516 1.368936,-3.4823 3.930875,-6.3872 7.228811,-8.1966 1.919063,-1.0528 4.091831,-1.7089 6.271653,-1.8938 0.555955,-0.047 0.765547,-0.055 1.400649,-0.055 0.635639,0 0.846266,0.011 1.400648,0.055 1.350452,0.1151 2.726635,0.415 3.9956,0.871 2.685442,0.9649 5.052162,2.6183 6.889024,4.8127 1.309333,1.5641 2.310788,3.372 2.93986,5.307 0.372694,1.1465 0.619139,2.3592 0.719151,3.5388 0.04897,0.5776 0.0559,0.7527 0.05588,1.4129 0,0.6623 -0.0078,0.8578 -0.05618,1.4193 -0.321276,3.7251 -1.962283,7.2361 -4.625787,9.8974 -1.55816,1.5567 -3.391421,2.7627 -5.423817,3.5681 -1.669108,0.6615 -3.422561,1.0324 -5.237828,1.1081 -0.266575,0.011 -0.96504,0.014 -1.219314,0 z m 7.309634,-8.4757 c 0.11186,-0.031 0.289913,-0.1214 0.377986,-0.1935 0.151553,-0.1237 0.274564,-0.3113 0.328563,-0.5009 0.03761,-0.132 0.04772,-0.3666 0.02037,-0.4728 -0.05602,-0.2178 -0.150287,-0.3813 -0.304946,-0.5291 -0.105681,-0.1013 -0.201819,-0.164 -0.578296,-0.3795 -1.707135,-0.9775 -3.614518,-1.645 -5.677628,-1.987 -0.746992,-0.1239 -1.337822,-0.1879 -2.282306,-0.2476 -0.33745,-0.021 -1.843252,-0.021 -2.213525,10e-5 -1.58816,0.092 -2.813556,0.252 -4.377026,0.5727 -0.500754,0.1025 -0.593894,0.1249 -0.70236,0.1667 -0.380083,0.1466 -0.654519,0.5276 -0.654519,0.909 0,0.5128 0.327233,0.9151 0.823356,1.0121 0.181685,0.035 0.303773,0.021 0.733557,-0.082 0.307449,-0.075 0.778786,-0.1678 1.262505,-0.2503 2.915266,-0.4973 5.473777,-0.4823 7.885538,0.046 1.57012,0.3439 3.080551,0.9291 4.352015,1.6863 0.301679,0.1796 0.437786,0.2422 0.584813,0.269 0.08641,0.016 0.334975,0 0.421903,-0.019 z m 1.813338,-4.2447 c 0.211261,-0.058 0.401311,-0.1686 0.557459,-0.3247 0.20993,-0.2099 0.328133,-0.4605 0.362318,-0.7679 0.01555,-0.1398 0.0097,-0.2252 -0.02615,-0.3792 -0.07443,-0.3201 -0.193913,-0.52 -0.418519,-0.7005 -0.262114,-0.2106 -1.22414,-0.741 -1.969559,-1.086 -1.88014,-0.8701 -4.028749,-1.4905 -6.252895,-1.8056 -2.15209,-0.305 -4.363719,-0.3284 -6.446734,-0.068 -1.08495,0.1353 -2.122678,0.344 -3.142881,0.6319 -0.28249,0.08 -0.388929,0.1162 -0.493969,0.1691 -0.177434,0.09 -0.353622,0.2344 -0.467076,0.3845 -0.08187,0.1082 -0.174216,0.3054 -0.21067,0.4499 -0.05292,0.2097 -0.03941,0.4691 0.03597,0.6906 0.132742,0.3902 0.462574,0.696 0.870804,0.8074 0.09147,0.025 0.13509,0.029 0.312645,0.029 0.227598,-3e-4 0.226886,-10e-5 0.569013,-0.1056 0.357962,-0.1106 1.079236,-0.2812 1.606994,-0.3802 0.973518,-0.1826 1.934324,-0.2906 2.966863,-0.3338 0.462373,-0.019 1.730123,-0.011 2.166764,0.019 1.454236,0.091 2.782988,0.2931 4.110056,0.6271 1.724217,0.4342 3.289306,1.0605 4.700272,1.881 0.341034,0.1982 0.436181,0.242 0.612784,0.2815 0.122849,0.028 0.425894,0.017 0.556507,-0.018 z m 1.927325,-4.9091 c 0.628387,-0.1095 1.115543,-0.5917 1.223535,-1.2109 0.02534,-0.1452 0.0254,-0.4365 1.24e-4,-0.5453 -0.09309,-0.4007 -0.298085,-0.714 -0.61685,-0.9425 -0.320564,-0.2297 -1.36467,-0.7673 -2.128302,-1.0957 -3.746738,-1.6113 -8.606155,-2.3489 -13.468128,-2.0443 -1.670805,0.1045 -3.216676,0.3405 -4.708429,0.7186 -0.816629,0.2069 -1.015249,0.2775 -1.229791,0.4375 -0.113303,0.084 -0.277225,0.2525 -0.348241,0.3572 -0.160147,0.2358 -0.27818,0.5798 -0.278809,0.8126 -0.0016,0.6014 0.330263,1.1415 0.856377,1.3935 0.19965,0.096 0.40934,0.142 0.644048,0.1424 0.182649,4e-4 0.294071,-0.019 0.573952,-0.099 1.451313,-0.4182 3.140016,-0.6895 4.928596,-0.7922 1.05533,-0.061 2.349094,-0.061 3.420332,-1e-4 2.576544,0.1455 5.065036,0.6114 7.190831,1.3462 0.96225,0.3326 1.940672,0.7693 2.657479,1.1864 0.367437,0.2137 0.566002,0.3029 0.748461,0.3359 0.131813,0.024 0.398603,0.024 0.534815,2e-4 z"
       id="path3001"
       inkscape:connector-curvature="0" />
    <path
       style="fill:#000000"
       d=""
       id="path3151"
       inkscape:connector-curvature="0" />
    <path
       style="fill:#000000"
       d=""
       id="path3147"
       inkscape:connector-curvature="0" />
    <path
       style="fill:#000000"
       d=""
       id="path3145"
       inkscape:connector-curvature="0" />
  </g>
</svg>
